<svg width="24" height="25" viewBox="0 0 24 25" fill="none" xmlns="http://www.w3.org/2000/svg">
    <path d="M24 4.79146L18.486 0.00620655L16.944 1.90541L22.458 6.69067L24 4.79146ZM7.056 1.89921L5.514 0L0 4.78525L1.542 6.68446L7.056 1.89921ZM12.6 7.62165H10.8V15.0695L16.494 18.6135L17.4 17.0804L12.6 14.1385V7.62165ZM11.994 2.6564C6.024 2.6564 1.2 7.65889 1.2 13.8282C1.2 19.9975 6.024 25 11.994 25C17.964 25 22.8 19.9975 22.8 13.8282C22.8 7.65889 17.964 2.6564 11.994 2.6564ZM12 22.5174C7.362 22.5174 3.6 18.6259 3.6 13.8282C3.6 9.03054 7.362 5.13903 12 5.13903C16.638 5.13903 20.4 9.03054 20.4 13.8282C20.4 18.6259 16.644 22.5174 12 22.5174Z" fill="#26545C"/>
</svg>
