<svg width="23" height="27" viewBox="0 0 23 27" fill="none" xmlns="http://www.w3.org/2000/svg">
    <path fill-rule="evenodd" clip-rule="evenodd" d="M21.4564 7.19959L13.8926 1.45267C12.5034 0.39838 10.4966 0.43697 9.10738 1.54529L1.38926 7.82167C0.463087 8.56107 0 9.67865 0 10.8595V22.4182C0 24.5684 1.69799 26.3127 3.85906 26.3127H6.32886H8.95302H14.047H16.6711H19.2953C21.302 26.3127 23 24.5684 23 22.4182V10.3301C23 9.09516 22.5369 7.93435 21.4564 7.19959ZM16.6712 23.7164H19.2954C19.9128 23.7164 20.5303 23.1344 20.5303 22.4182V10.3301C20.5303 9.91791 20.3759 9.532 19.9128 9.28657L12.3491 3.53965C11.886 3.18771 11.2685 3.20006 10.8054 3.57053L3.08732 9.8469C2.77859 10.0939 2.62423 10.4659 2.62423 10.8595V22.4182C2.62423 23.1344 3.08732 23.7164 3.85913 23.7164H6.32893V19.8218C6.32893 16.9522 8.64436 14.6275 11.5773 14.6275C14.3558 14.6275 16.6712 16.9522 16.6712 19.8218V23.7164ZM8.95249 23.7163H14.0464V19.8218C14.0464 18.3862 12.9659 17.2239 11.5766 17.2239C10.1874 17.2239 8.95249 18.3862 8.95249 19.8218V23.7163Z" fill="#26545C"/>
</svg>
