<svg width="28" height="25" viewBox="0 0 28 25" fill="none" xmlns="http://www.w3.org/2000/svg">
    <path d="M5.09091 0C5.79382 0 6.36364 0.559644 6.36364 1.25V15C6.36364 15.6904 5.79382 16.25 5.09091 16.25C4.388 16.25 3.81818 15.6904 3.81818 15V1.25C3.81818 0.559644 4.388 0 5.09091 0ZM14 0C14.7029 0 15.2727 0.559644 15.2727 1.25V11.25H17.8182C18.5211 11.25 19.0909 11.8096 19.0909 12.5C19.0909 13.1904 18.5211 13.75 17.8182 13.75H10.1818C9.47891 13.75 8.90909 13.1904 8.90909 12.5C8.90909 11.8096 9.47891 11.25 10.1818 11.25H12.7273V1.25C12.7273 0.559644 13.2971 0 14 0ZM22.9091 0C23.612 0 24.1818 0.559644 24.1818 1.25V3.75H26.7273C27.4302 3.75 28 4.30964 28 5C28 5.69036 27.4302 6.25 26.7273 6.25H19.0909C18.388 6.25 17.8182 5.69036 17.8182 5C17.8182 4.30964 18.388 3.75 19.0909 3.75H21.6364V1.25C21.6364 0.559644 22.2062 0 22.9091 0ZM22.9091 8.75C23.612 8.75 24.1818 9.30964 24.1818 10V23.75C24.1818 24.4404 23.612 25 22.9091 25C22.2062 25 21.6364 24.4404 21.6364 23.75V10C21.6364 9.30964 22.2062 8.75 22.9091 8.75ZM14 16.25C14.7029 16.25 15.2727 16.8096 15.2727 17.5V23.75C15.2727 24.4404 14.7029 25 14 25C13.2971 25 12.7273 24.4404 12.7273 23.75V17.5C12.7273 16.8096 13.2971 16.25 14 16.25ZM0 20C0 19.3096 0.569819 18.75 1.27273 18.75H8.90909C9.612 18.75 10.1818 19.3096 10.1818 20C10.1818 20.6904 9.612 21.25 8.90909 21.25H6.36364V23.75C6.36364 24.4404 5.79382 25 5.09091 25C4.388 25 3.81818 24.4404 3.81818 23.75V21.25H1.27273C0.569819 21.25 0 20.6904 0 20Z" fill="#26545C"/>
</svg>
